<mxfile host="app.diagrams.net" agent="Mozilla/5.0 (Windows NT 10.0; Win64; x64) AppleWebKit/537.36 (KHTML, like Gecko) Chrome/134.0.0.0 Safari/537.36" version="26.1.1">
  <diagram name="Página-1" id="BHSceU6xwgiTNne1hsvn">
    <mxGraphModel dx="958" dy="1000" grid="0" gridSize="10" guides="1" tooltips="1" connect="1" arrows="1" fold="1" page="0" pageScale="1" pageWidth="827" pageHeight="1169" math="0" shadow="0">
      <root>
        <mxCell id="0" />
        <mxCell id="1" parent="0" />
        <mxCell id="AOWeKJ0I4ruh9yZNwAPh-3" value="" style="edgeStyle=none;curved=1;rounded=0;orthogonalLoop=1;jettySize=auto;html=1;fontSize=12;startSize=8;endSize=8;" edge="1" parent="1" source="AOWeKJ0I4ruh9yZNwAPh-1" target="AOWeKJ0I4ruh9yZNwAPh-2">
          <mxGeometry relative="1" as="geometry" />
        </mxCell>
        <mxCell id="AOWeKJ0I4ruh9yZNwAPh-1" value="inicio" style="ellipse;whiteSpace=wrap;html=1;" vertex="1" parent="1">
          <mxGeometry x="52" y="-81" width="120" height="80" as="geometry" />
        </mxCell>
        <mxCell id="AOWeKJ0I4ruh9yZNwAPh-5" value="" style="edgeStyle=none;curved=1;rounded=0;orthogonalLoop=1;jettySize=auto;html=1;fontSize=12;startSize=8;endSize=8;" edge="1" parent="1" source="AOWeKJ0I4ruh9yZNwAPh-2" target="AOWeKJ0I4ruh9yZNwAPh-4">
          <mxGeometry relative="1" as="geometry" />
        </mxCell>
        <mxCell id="AOWeKJ0I4ruh9yZNwAPh-2" value="cotacao, valorreais" style="shape=parallelogram;perimeter=parallelogramPerimeter;whiteSpace=wrap;html=1;fixedSize=1;" vertex="1" parent="1">
          <mxGeometry x="52" y="129" width="120" height="60" as="geometry" />
        </mxCell>
        <mxCell id="AOWeKJ0I4ruh9yZNwAPh-7" value="" style="edgeStyle=none;curved=1;rounded=0;orthogonalLoop=1;jettySize=auto;html=1;fontSize=12;startSize=8;endSize=8;" edge="1" parent="1" source="AOWeKJ0I4ruh9yZNwAPh-4" target="AOWeKJ0I4ruh9yZNwAPh-6">
          <mxGeometry relative="1" as="geometry" />
        </mxCell>
        <mxCell id="AOWeKJ0I4ruh9yZNwAPh-4" value="resultado = (valorreais/cotaçao)" style="whiteSpace=wrap;html=1;" vertex="1" parent="1">
          <mxGeometry x="52" y="309" width="120" height="60" as="geometry" />
        </mxCell>
        <mxCell id="AOWeKJ0I4ruh9yZNwAPh-9" value="" style="edgeStyle=none;curved=1;rounded=0;orthogonalLoop=1;jettySize=auto;html=1;fontSize=12;startSize=8;endSize=8;" edge="1" parent="1" source="AOWeKJ0I4ruh9yZNwAPh-6" target="AOWeKJ0I4ruh9yZNwAPh-8">
          <mxGeometry relative="1" as="geometry" />
        </mxCell>
        <mxCell id="AOWeKJ0I4ruh9yZNwAPh-6" value="resultado" style="shape=document;whiteSpace=wrap;html=1;boundedLbl=1;" vertex="1" parent="1">
          <mxGeometry x="52" y="479" width="120" height="80" as="geometry" />
        </mxCell>
        <mxCell id="AOWeKJ0I4ruh9yZNwAPh-8" value="fim" style="ellipse;whiteSpace=wrap;html=1;" vertex="1" parent="1">
          <mxGeometry x="72" y="679" width="80" height="80" as="geometry" />
        </mxCell>
      </root>
    </mxGraphModel>
  </diagram>
</mxfile>
